<svg xmlns="http://www.w3.org/2000/svg" xmlns:xlink="http://www.w3.org/1999/xlink" width="500" zoomAndPan="magnify" viewBox="0 0 375 374.999991" height="500" preserveAspectRatio="xMidYMid meet" version="1.0"><defs><g/><clipPath id="8f83a0ab8e"><path d="M 77.75 0.703125 L 259.21875 0.703125 L 259.21875 128.316406 L 77.75 128.316406 Z M 77.75 0.703125 " clip-rule="nonzero"/></clipPath><clipPath id="60bcc2fce5"><path d="M 0.199219 135 L 337.398438 135 L 337.398438 201 L 0.199219 201 Z M 0.199219 135 " clip-rule="nonzero"/></clipPath><clipPath id="2763852eac"><rect x="0" width="338" y="0" height="66"/></clipPath><clipPath id="80d7289a8c"><path d="M 98 199 L 243 199 L 243 221.878906 L 98 221.878906 Z M 98 199 " clip-rule="nonzero"/></clipPath><clipPath id="ef74e75c30"><rect x="0" width="145" y="0" height="23"/></clipPath><clipPath id="82e2ac77c9"><rect x="0" width="338" y="0" height="222"/></clipPath></defs><g transform="matrix(1, 0, 0, 1, 19, 75)"><g clip-path="url(#82e2ac77c9)"><g clip-path="url(#8f83a0ab8e)"><path fill="#00a0e8" d="M 138.242188 23.40625 C 138.242188 21.933594 139.441406 20.738281 140.910156 20.738281 C 142.386719 20.738281 143.578125 21.933594 143.578125 23.40625 C 143.578125 24.878906 142.386719 26.070312 140.910156 26.070312 C 139.441406 26.070312 138.242188 24.878906 138.242188 23.40625 Z M 140.910156 32.175781 C 143.339844 32.175781 145.328125 34.15625 145.328125 36.589844 C 145.328125 36.835938 145.527344 37.039062 145.777344 37.039062 L 151.058594 37.039062 C 151.421875 37.039062 151.636719 36.636719 151.433594 36.335938 L 146.011719 28.273438 C 145.921875 28.136719 145.910156 27.964844 145.980469 27.820312 C 151.179688 17.171875 144.777344 4.128906 141.214844 0.867188 C 141.042969 0.710938 140.777344 0.710938 140.609375 0.867188 C 137.042969 4.128906 130.640625 17.171875 135.835938 27.820312 C 135.910156 27.964844 135.898438 28.136719 135.808594 28.273438 L 130.386719 36.335938 C 130.1875 36.636719 130.402344 37.039062 130.761719 37.039062 L 136.039062 37.039062 C 136.289062 37.039062 136.492188 36.835938 136.492188 36.589844 C 136.492188 34.15625 138.480469 32.175781 140.910156 32.175781 Z M 217.507812 128.652344 L 243.226562 128.652344 C 251.964844 128.652344 259.054688 121.597656 259.121094 112.855469 C 259.121094 112.746094 259.121094 112.640625 259.121094 112.527344 C 259.121094 93.769531 246.898438 77.867188 229.976562 72.351562 C 229.683594 72.253906 229.378906 72.476562 229.386719 72.785156 L 229.386719 73.015625 C 229.386719 81.304688 227.007812 89.039062 222.898438 95.574219 C 222.609375 96.035156 221.90625 95.683594 222.09375 95.175781 C 223.804688 90.574219 224.738281 85.597656 224.738281 80.398438 C 224.738281 77.105469 224.359375 73.898438 223.652344 70.8125 L 223.582031 70.804688 C 219.28125 52.03125 202.472656 38.023438 182.394531 38.023438 C 168.339844 38.023438 155.894531 44.886719 148.210938 55.441406 C 147.953125 55.796875 147.394531 55.617188 147.394531 55.179688 L 147.394531 42.054688 C 147.394531 41.207031 146.699219 40.515625 145.847656 40.515625 C 145 40.515625 144.304688 41.207031 144.304688 42.054688 L 144.304688 97.867188 C 144.304688 115.875 150.445312 128.652344 168.679688 128.652344 Z M 139.300781 97.632812 L 139.300781 42.054688 C 139.300781 41.207031 138.609375 40.515625 137.757812 40.515625 C 136.90625 40.515625 136.214844 41.207031 136.214844 42.054688 L 136.214844 64.992188 C 136.214844 65.3125 135.894531 65.53125 135.597656 65.414062 C 131.007812 63.605469 126.023438 62.578125 120.808594 62.492188 L 120.121094 62.488281 C 96.785156 62.488281 77.867188 81.40625 77.867188 104.742188 C 77.867188 105.550781 77.890625 106.355469 77.933594 107.152344 C 78.613281 119.222656 88.625 128.652344 100.714844 128.652344 L 117.175781 128.652344 C 133.925781 128.652344 139.300781 112.769531 139.300781 97.632812 " fill-opacity="1" fill-rule="evenodd"/></g><g clip-path="url(#60bcc2fce5)"><g transform="matrix(1, 0, 0, 1, 0.000000000000003553, 135)"><g clip-path="url(#2763852eac)"><g fill="#2d3f4e" fill-opacity="1"><g transform="translate(0.80583, 51.713179)"><g><path d="M 26.078125 1.125 C 21.921875 1.125 18.378906 0.503906 15.453125 -0.734375 C 12.535156 -1.972656 10.160156 -3.660156 8.328125 -5.796875 C 6.492188 -7.941406 5.144531 -10.40625 4.28125 -13.1875 C 3.414062 -15.976562 2.984375 -18.925781 2.984375 -22.03125 C 2.984375 -25.082031 3.414062 -28 4.28125 -30.78125 C 5.144531 -33.570312 6.492188 -36.050781 8.328125 -38.21875 C 10.160156 -40.382812 12.546875 -42.097656 15.484375 -43.359375 C 18.429688 -44.617188 21.984375 -45.25 26.140625 -45.25 C 31.222656 -45.25 35.34375 -44.550781 38.5 -43.15625 C 41.664062 -41.757812 44.046875 -39.691406 45.640625 -36.953125 C 47.234375 -34.210938 48.1875 -30.828125 48.5 -26.796875 L 38.140625 -26.796875 C 37.835938 -30.078125 36.800781 -32.597656 35.03125 -34.359375 C 33.257812 -36.128906 30.335938 -37.015625 26.265625 -37.015625 C 21.847656 -37.015625 18.617188 -35.753906 16.578125 -33.234375 C 14.546875 -30.710938 13.53125 -26.976562 13.53125 -22.03125 C 13.53125 -17.164062 14.492188 -13.472656 16.421875 -10.953125 C 18.347656 -8.429688 21.519531 -7.171875 25.9375 -7.171875 C 30.1875 -7.171875 33.238281 -8.085938 35.09375 -9.921875 C 36.945312 -11.753906 38.007812 -14.394531 38.28125 -17.84375 L 48.703125 -17.84375 C 48.390625 -13.601562 47.445312 -10.078125 45.875 -7.265625 C 44.300781 -4.453125 41.910156 -2.347656 38.703125 -0.953125 C 35.503906 0.429688 31.296875 1.125 26.078125 1.125 Z M 26.078125 1.125 "/></g></g></g><g fill="#2d3f4e" fill-opacity="1"><g transform="translate(53.016065, 51.713179)"><g><path d="M 3.84375 0 L 3.84375 -46.4375 L 13.671875 -46.4375 L 13.671875 0 Z M 3.84375 0 "/></g></g></g><g fill="#2d3f4e" fill-opacity="1"><g transform="translate(71.326183, 51.713179)"><g><path d="M 20.828125 1.0625 C 16.453125 1.0625 12.914062 0.234375 10.21875 -1.421875 C 7.519531 -3.085938 5.550781 -5.269531 4.3125 -7.96875 C 3.070312 -10.664062 2.453125 -13.5625 2.453125 -16.65625 C 2.453125 -19.707031 3.070312 -22.566406 4.3125 -25.234375 C 5.550781 -27.910156 7.519531 -30.078125 10.21875 -31.734375 C 12.914062 -33.398438 16.453125 -34.234375 20.828125 -34.234375 C 25.253906 -34.234375 28.816406 -33.398438 31.515625 -31.734375 C 34.210938 -30.078125 36.164062 -27.910156 37.375 -25.234375 C 38.59375 -22.566406 39.203125 -19.707031 39.203125 -16.65625 C 39.203125 -13.601562 38.59375 -10.726562 37.375 -8.03125 C 36.164062 -5.332031 34.210938 -3.140625 31.515625 -1.453125 C 28.816406 0.222656 25.253906 1.0625 20.828125 1.0625 Z M 12.34375 -16.59375 C 12.34375 -12.914062 13.015625 -10.335938 14.359375 -8.859375 C 15.710938 -7.378906 17.867188 -6.640625 20.828125 -6.640625 C 23.835938 -6.640625 26.015625 -7.378906 27.359375 -8.859375 C 28.710938 -10.335938 29.390625 -12.914062 29.390625 -16.59375 C 29.390625 -20.257812 28.710938 -22.832031 27.359375 -24.3125 C 26.015625 -25.789062 23.835938 -26.53125 20.828125 -26.53125 C 17.867188 -26.53125 15.710938 -25.789062 14.359375 -24.3125 C 13.015625 -22.832031 12.34375 -20.257812 12.34375 -16.59375 Z M 12.34375 -16.59375 "/></g></g></g><g fill="#2d3f4e" fill-opacity="1"><g transform="translate(113.850675, 51.713179)"><g><path d="M 27.671875 -33.171875 L 37.484375 -33.171875 L 37.484375 0 L 27.671875 0 L 27.671875 -6.375 C 26.648438 -4.15625 25.1875 -2.359375 23.28125 -0.984375 C 21.382812 0.378906 18.929688 1.0625 15.921875 1.0625 C 11.585938 1.0625 8.414062 -0.175781 6.40625 -2.65625 C 4.394531 -5.132812 3.390625 -8.539062 3.390625 -12.875 L 3.390625 -33.171875 L 13.203125 -33.171875 L 13.203125 -14.328125 C 13.203125 -11.722656 13.765625 -9.84375 14.890625 -8.6875 C 16.023438 -7.539062 17.628906 -6.96875 19.703125 -6.96875 C 22.179688 -6.96875 24.128906 -7.882812 25.546875 -9.71875 C 26.960938 -11.550781 27.671875 -14.347656 27.671875 -18.109375 Z M 27.671875 -33.171875 "/></g></g></g><g fill="#2d3f4e" fill-opacity="1"><g transform="translate(156.043473, 51.713179)"><g><path d="M 29.59375 -46.4375 L 39.40625 -46.4375 L 39.40625 0 L 29.59375 0 L 29.59375 -4.90625 C 28.4375 -3.007812 26.882812 -1.539062 24.9375 -0.5 C 23 0.539062 20.59375 1.0625 17.71875 1.0625 C 14.132812 1.0625 11.210938 0.253906 8.953125 -1.359375 C 6.703125 -2.972656 5.054688 -5.128906 4.015625 -7.828125 C 2.972656 -10.523438 2.453125 -13.46875 2.453125 -16.65625 C 2.453125 -19.789062 2.972656 -22.695312 4.015625 -25.375 C 5.054688 -28.050781 6.703125 -30.195312 8.953125 -31.8125 C 11.210938 -33.425781 14.132812 -34.234375 17.71875 -34.234375 C 20.59375 -34.234375 23 -33.703125 24.9375 -32.640625 C 26.882812 -31.578125 28.4375 -30.097656 29.59375 -28.203125 Z M 20.765625 -6.640625 C 23.859375 -6.640625 26.101562 -7.457031 27.5 -9.09375 C 28.894531 -10.726562 29.59375 -13.226562 29.59375 -16.59375 C 29.59375 -19.988281 28.894531 -22.492188 27.5 -24.109375 C 26.101562 -25.722656 23.859375 -26.53125 20.765625 -26.53125 C 17.671875 -26.53125 15.484375 -25.734375 14.203125 -24.140625 C 12.921875 -22.554688 12.28125 -20.039062 12.28125 -16.59375 C 12.28125 -13.1875 12.921875 -10.675781 14.203125 -9.0625 C 15.484375 -7.445312 17.671875 -6.640625 20.765625 -6.640625 Z M 20.765625 -6.640625 "/></g></g></g><g fill="#2d3f4e" fill-opacity="1"><g transform="translate(199.961121, 51.713179)"><g/></g></g><g fill="#2d3f4e" fill-opacity="1"><g transform="translate(217.607832, 51.713179)"><g><path d="M 3.84375 0 L 3.84375 -7.890625 L 13.734375 -7.890625 L 13.734375 -36.21875 L 4.515625 -36.21875 L 4.515625 -44.125 L 13.734375 -44.125 C 17.398438 -44.125 19.992188 -43.328125 21.515625 -41.734375 C 23.046875 -40.140625 23.8125 -38.0625 23.8125 -35.5 L 23.8125 -7.890625 L 32.578125 -7.890625 L 32.578125 0 Z M 3.84375 0 "/></g></g></g><g fill="#2d3f4e" fill-opacity="1"><g transform="translate(252.967522, 51.713179)"><g><path d="M 23.890625 1.125 C 19.992188 1.125 16.6875 0.492188 13.96875 -0.765625 C 11.25 -2.023438 9.046875 -3.726562 7.359375 -5.875 C 5.679688 -8.019531 4.453125 -10.484375 3.671875 -13.265625 C 2.898438 -16.054688 2.515625 -18.976562 2.515625 -22.03125 C 2.515625 -25.03125 2.898438 -27.910156 3.671875 -30.671875 C 4.453125 -33.441406 5.679688 -35.921875 7.359375 -38.109375 C 9.046875 -40.304688 11.25 -42.046875 13.96875 -43.328125 C 16.6875 -44.609375 19.992188 -45.25 23.890625 -45.25 C 27.773438 -45.25 31.078125 -44.609375 33.796875 -43.328125 C 36.515625 -42.046875 38.722656 -40.304688 40.421875 -38.109375 C 42.128906 -35.921875 43.367188 -33.441406 44.140625 -30.671875 C 44.921875 -27.910156 45.3125 -25.03125 45.3125 -22.03125 C 45.3125 -18.976562 44.921875 -16.066406 44.140625 -13.296875 C 43.367188 -10.535156 42.128906 -8.070312 40.421875 -5.90625 C 38.722656 -3.738281 36.515625 -2.023438 33.796875 -0.765625 C 31.078125 0.492188 27.773438 1.125 23.890625 1.125 Z M 13 -22.03125 C 13 -17.207031 13.769531 -13.523438 15.3125 -10.984375 C 16.863281 -8.441406 19.722656 -7.171875 23.890625 -7.171875 C 28.085938 -7.171875 30.957031 -8.441406 32.5 -10.984375 C 34.050781 -13.523438 34.828125 -17.207031 34.828125 -22.03125 C 34.828125 -26.894531 34.050781 -30.609375 32.5 -33.171875 C 30.957031 -35.734375 28.085938 -37.015625 23.890625 -37.015625 C 19.722656 -37.015625 16.863281 -35.734375 15.3125 -33.171875 C 13.769531 -30.609375 13 -26.894531 13 -22.03125 Z M 13 -22.03125 "/></g></g></g><g fill="#2d3f4e" fill-opacity="1"><g transform="translate(301.661698, 51.713179)"><g><path d="M 3.84375 0 L 3.84375 -7.890625 L 13.734375 -7.890625 L 13.734375 -36.21875 L 4.515625 -36.21875 L 4.515625 -44.125 L 13.734375 -44.125 C 17.398438 -44.125 19.992188 -43.328125 21.515625 -41.734375 C 23.046875 -40.140625 23.8125 -38.0625 23.8125 -35.5 L 23.8125 -7.890625 L 32.578125 -7.890625 L 32.578125 0 Z M 3.84375 0 "/></g></g></g></g></g></g><g clip-path="url(#80d7289a8c)"><g transform="matrix(1, 0, 0, 1, 98, 199)"><g clip-path="url(#ef74e75c30)"><g fill="#00a0e8" fill-opacity="1"><g transform="translate(0.667792, 17.850761)"><g><path d="M 12.5 0 L 11.453125 -2.9375 L 5 -2.9375 L 3.96875 0 L 0.65625 0 L 5.71875 -14.40625 L 10.734375 -14.40625 L 15.8125 0 Z M 5.890625 -5.484375 L 10.5625 -5.484375 L 8.234375 -12.125 Z M 5.890625 -5.484375 "/></g></g></g><g fill="#00a0e8" fill-opacity="1"><g transform="translate(21.253892, 17.850761)"><g><path d="M 8.515625 0.375 C 7.148438 0.375 5.988281 0.171875 5.03125 -0.234375 C 4.082031 -0.640625 3.304688 -1.191406 2.703125 -1.890625 C 2.109375 -2.585938 1.671875 -3.390625 1.390625 -4.296875 C 1.109375 -5.210938 0.96875 -6.175781 0.96875 -7.1875 C 0.96875 -8.1875 1.109375 -9.140625 1.390625 -10.046875 C 1.671875 -10.953125 2.109375 -11.757812 2.703125 -12.46875 C 3.304688 -13.175781 4.085938 -13.734375 5.046875 -14.140625 C 6.015625 -14.554688 7.175781 -14.765625 8.53125 -14.765625 C 10.1875 -14.765625 11.53125 -14.535156 12.5625 -14.078125 C 13.601562 -13.628906 14.378906 -12.957031 14.890625 -12.0625 C 15.410156 -11.164062 15.722656 -10.0625 15.828125 -8.75 L 12.453125 -8.75 C 12.347656 -9.820312 12.003906 -10.644531 11.421875 -11.21875 C 10.847656 -11.789062 9.898438 -12.078125 8.578125 -12.078125 C 7.128906 -12.078125 6.070312 -11.664062 5.40625 -10.84375 C 4.75 -10.019531 4.421875 -8.800781 4.421875 -7.1875 C 4.421875 -5.601562 4.734375 -4.398438 5.359375 -3.578125 C 5.984375 -2.753906 7.019531 -2.34375 8.46875 -2.34375 C 9.851562 -2.34375 10.847656 -2.640625 11.453125 -3.234375 C 12.054688 -3.835938 12.40625 -4.703125 12.5 -5.828125 L 15.890625 -5.828125 C 15.796875 -4.441406 15.488281 -3.289062 14.96875 -2.375 C 14.457031 -1.457031 13.675781 -0.769531 12.625 -0.3125 C 11.582031 0.144531 10.210938 0.375 8.515625 0.375 Z M 8.515625 0.375 "/></g></g></g><g fill="#00a0e8" fill-opacity="1"><g transform="translate(42.164657, 17.850761)"><g><path d="M 12.5 0 L 11.453125 -2.9375 L 5 -2.9375 L 3.96875 0 L 0.65625 0 L 5.71875 -14.40625 L 10.734375 -14.40625 L 15.8125 0 Z M 5.890625 -5.484375 L 10.5625 -5.484375 L 8.234375 -12.125 Z M 5.890625 -5.484375 "/></g></g></g><g fill="#00a0e8" fill-opacity="1"><g transform="translate(62.750757, 17.850761)"><g><path d="M 8.1875 -14.40625 C 9.351562 -14.40625 10.363281 -14.207031 11.21875 -13.8125 C 12.070312 -13.425781 12.78125 -12.898438 13.34375 -12.234375 C 13.90625 -11.566406 14.316406 -10.800781 14.578125 -9.9375 C 14.847656 -9.082031 14.984375 -8.179688 14.984375 -7.234375 C 14.984375 -6.273438 14.847656 -5.363281 14.578125 -4.5 C 14.316406 -3.632812 13.90625 -2.863281 13.34375 -2.1875 C 12.78125 -1.507812 12.070312 -0.972656 11.21875 -0.578125 C 10.363281 -0.191406 9.351562 0 8.1875 0 L 1.25 0 L 1.25 -14.40625 Z M 7.453125 -2.625 C 8.921875 -2.625 9.972656 -3.007812 10.609375 -3.78125 C 11.242188 -4.550781 11.5625 -5.703125 11.5625 -7.234375 C 11.5625 -8.773438 11.238281 -9.921875 10.59375 -10.671875 C 9.957031 -11.421875 8.910156 -11.796875 7.453125 -11.796875 L 4.546875 -11.796875 L 4.546875 -2.625 Z M 7.453125 -2.625 "/></g></g></g><g fill="#00a0e8" fill-opacity="1"><g transform="translate(82.709159, 17.850761)"><g><path d="M 4.546875 -2.625 L 12.625 -2.625 L 12.625 0 L 1.25 0 L 1.25 -14.40625 L 12.5625 -14.40625 L 12.5625 -11.796875 L 4.546875 -11.796875 L 4.546875 -8.578125 L 11.90625 -8.578125 L 11.90625 -6.125 L 4.546875 -6.125 Z M 4.546875 -2.625 "/></g></g></g><g fill="#00a0e8" fill-opacity="1"><g transform="translate(100.568056, 17.850761)"><g><path d="M 19.234375 -14.40625 L 19.234375 0 L 15.9375 0 L 15.9375 -12.234375 L 12.15625 0 L 8.34375 0 L 4.53125 -12.296875 L 4.53125 0 L 1.25 0 L 1.25 -14.40625 L 6.90625 -14.40625 L 10.28125 -3.25 L 13.671875 -14.40625 Z M 19.234375 -14.40625 "/></g></g></g><g fill="#00a0e8" fill-opacity="1"><g transform="translate(125.180019, 17.850761)"><g><path d="M 10.984375 -14.40625 L 14.640625 -14.40625 L 9.21875 -4.359375 L 9.21875 0 L 5.9375 0 L 5.9375 -4.359375 L 0.5 -14.40625 L 4.171875 -14.40625 L 6.546875 -9.40625 C 6.710938 -9 6.878906 -8.597656 7.046875 -8.203125 C 7.222656 -7.816406 7.382812 -7.421875 7.53125 -7.015625 C 7.707031 -7.421875 7.878906 -7.816406 8.046875 -8.203125 C 8.222656 -8.597656 8.40625 -9 8.59375 -9.40625 Z M 10.984375 -14.40625 "/></g></g></g></g></g></g></g></g></svg>